<svg width="124" height="42" viewBox="0 0 124 42" fill="none" xmlns="http://www.w3.org/2000/svg">
<path fill-rule="evenodd" clip-rule="evenodd" d="M16.1718 4.18465C15.7585 4.09966 15.3324 4.09966 14.9191 4.18465C14.4415 4.28289 14.0146 4.52201 13.6752 4.71211L13.5826 4.7638L2.07943 11.1545C2.04763 11.1721 2.01486 11.1902 1.98128 11.2087C1.62199 11.4066 1.17023 11.6554 0.823311 12.0319C0.52337 12.3573 0.296383 12.7431 0.157529 13.1634C-0.00307624 13.6495 -0.00119721 14.1652 0.000297129 14.5754C0.000436819 14.6137 0.000573072 14.6511 0.000573072 14.6875V27.3055C0.000573072 27.3419 0.000436819 27.3793 0.000297129 27.4176C-0.00119721 27.8278 -0.00307624 28.3435 0.157529 28.8296C0.296384 29.2499 0.523372 29.6357 0.823311 29.9611C1.17023 30.3376 1.62199 30.5864 1.98128 30.7843C2.01486 30.8028 2.04763 30.8209 2.07944 30.8385L13.5826 37.2292L13.6752 37.2809C14.0146 37.471 14.4415 37.7101 14.9192 37.8083C15.3324 37.8933 15.7585 37.8933 16.1718 37.8083C16.6494 37.7101 17.0763 37.471 17.4158 37.2809L17.5083 37.2292L29.0115 30.8385C29.0255 30.8307 29.0398 30.8228 29.0542 30.8149C29.0724 30.8048 29.0909 30.7946 29.1096 30.7843C29.4689 30.5864 29.9207 30.3376 30.2676 29.9611C30.5675 29.6357 30.7945 29.2499 30.9334 28.8296C31.094 28.3435 31.0921 27.8278 31.0906 27.4176C31.0905 27.3793 31.0903 27.3419 31.0903 27.3055V14.6875C31.0903 14.6511 31.0905 14.6137 31.0906 14.5754C31.0921 14.1652 31.094 13.6495 30.9334 13.1634C30.7945 12.7431 30.5675 12.3573 30.2676 12.0319C29.9207 11.6554 29.4689 11.4066 29.1096 11.2087L29.1084 11.208C29.0752 11.1897 29.0429 11.1719 29.0115 11.1545L17.5083 4.76379L17.4157 4.71211C17.0763 4.52201 16.6494 4.28289 16.1718 4.18465ZM15.0925 7.48153C15.3281 7.35066 15.4483 7.28453 15.538 7.24127L15.5455 7.23771L15.5529 7.24126C15.6426 7.28453 15.7628 7.35066 15.9984 7.48153L26.3349 13.224L15.5454 19.2182L4.75597 13.224L15.0925 7.48153ZM3.10955 15.8659L13.9909 21.9111L13.991 33.8995L3.58929 28.1208C3.34064 27.9827 3.2137 27.9114 3.12463 27.8546L3.11711 27.8498L3.11655 27.8409C3.1102 27.7355 3.10955 27.5899 3.10955 27.3055V15.8659Z" fill="currentColor"/>
<path d="M43.3228 19V7.08H51.0828V8.76H45.2108V12.344H50.4428V14.024H45.2108V19H43.3228ZM56.6402 19.192C55.7762 19.192 55.0082 18.9947 54.3362 18.6C53.6749 18.1947 53.1575 17.6507 52.7842 16.968C52.4109 16.2747 52.2242 15.5013 52.2242 14.648C52.2242 13.7733 52.4109 13 52.7842 12.328C53.1682 11.656 53.6802 11.128 54.3202 10.744C54.9602 10.3493 55.6855 10.152 56.4962 10.152C57.1469 10.152 57.7282 10.264 58.2402 10.488C58.7522 10.712 59.1842 11.0213 59.5362 11.416C59.8882 11.8 60.1549 12.2427 60.3362 12.744C60.5282 13.2453 60.6242 13.7787 60.6242 14.344C60.6242 14.4827 60.6189 14.6267 60.6082 14.776C60.5975 14.9253 60.5762 15.064 60.5442 15.192H53.6482V13.752H59.5202L58.6562 14.408C58.7629 13.8853 58.7255 13.4213 58.5442 13.016C58.3735 12.6 58.1069 12.2747 57.7442 12.04C57.3922 11.7947 56.9762 11.672 56.4962 11.672C56.0162 11.672 55.5895 11.7947 55.2162 12.04C54.8429 12.2747 54.5549 12.616 54.3522 13.064C54.1495 13.5013 54.0695 14.0347 54.1122 14.664C54.0589 15.2507 54.1389 15.7627 54.3522 16.2C54.5762 16.6373 54.8855 16.9787 55.2802 17.224C55.6855 17.4693 56.1442 17.592 56.6562 17.592C57.1789 17.592 57.6215 17.4747 57.9842 17.24C58.3575 17.0053 58.6509 16.7013 58.8642 16.328L60.3362 17.048C60.1655 17.4533 59.8989 17.8213 59.5362 18.152C59.1842 18.472 58.7575 18.728 58.2562 18.92C57.7655 19.1013 57.2269 19.192 56.6402 19.192ZM66.7727 19.192C65.9087 19.192 65.1407 18.9947 64.4687 18.6C63.8074 18.1947 63.29 17.6507 62.9167 16.968C62.5434 16.2747 62.3567 15.5013 62.3567 14.648C62.3567 13.7733 62.5434 13 62.9167 12.328C63.3007 11.656 63.8127 11.128 64.4527 10.744C65.0927 10.3493 65.818 10.152 66.6287 10.152C67.2794 10.152 67.8607 10.264 68.3727 10.488C68.8847 10.712 69.3167 11.0213 69.6687 11.416C70.0207 11.8 70.2874 12.2427 70.4687 12.744C70.6607 13.2453 70.7567 13.7787 70.7567 14.344C70.7567 14.4827 70.7514 14.6267 70.7407 14.776C70.73 14.9253 70.7087 15.064 70.6767 15.192H63.7807V13.752H69.6527L68.7887 14.408C68.8954 13.8853 68.858 13.4213 68.6767 13.016C68.506 12.6 68.2394 12.2747 67.8767 12.04C67.5247 11.7947 67.1087 11.672 66.6287 11.672C66.1487 11.672 65.722 11.7947 65.3487 12.04C64.9754 12.2747 64.6874 12.616 64.4847 13.064C64.282 13.5013 64.202 14.0347 64.2447 14.664C64.1914 15.2507 64.2714 15.7627 64.4847 16.2C64.7087 16.6373 65.018 16.9787 65.4127 17.224C65.818 17.4693 66.2767 17.592 66.7887 17.592C67.3114 17.592 67.754 17.4747 68.1167 17.24C68.49 17.0053 68.7834 16.7013 68.9967 16.328L70.4687 17.048C70.298 17.4533 70.0314 17.8213 69.6687 18.152C69.3167 18.472 68.89 18.728 68.3887 18.92C67.898 19.1013 67.3594 19.192 66.7727 19.192ZM76.8412 19.192C76.0092 19.192 75.2625 18.9947 74.6012 18.6C73.9505 18.1947 73.4332 17.6507 73.0492 16.968C72.6759 16.2853 72.4892 15.5173 72.4892 14.664C72.4892 13.8107 72.6812 13.0427 73.0652 12.36C73.4492 11.6773 73.9665 11.1387 74.6172 10.744C75.2679 10.3493 76.0039 10.152 76.8252 10.152C77.5185 10.152 78.1319 10.2907 78.6652 10.568C79.1985 10.8453 79.6199 11.2293 79.9292 11.72L79.6572 12.136V6.888H81.4492V19H79.7372V17.24L79.9452 17.576C79.6465 18.0987 79.2199 18.4987 78.6652 18.776C78.1105 19.0533 77.5025 19.192 76.8412 19.192ZM77.0172 17.512C77.5185 17.512 77.9665 17.3893 78.3612 17.144C78.7665 16.8987 79.0812 16.5627 79.3052 16.136C79.5399 15.6987 79.6572 15.208 79.6572 14.664C79.6572 14.12 79.5399 13.6347 79.3052 13.208C79.0812 12.7813 78.7665 12.4453 78.3612 12.2C77.9665 11.9547 77.5185 11.832 77.0172 11.832C76.5159 11.832 76.0625 11.9547 75.6572 12.2C75.2519 12.4453 74.9372 12.7813 74.7132 13.208C74.4892 13.6347 74.3772 14.12 74.3772 14.664C74.3772 15.208 74.4892 15.6987 74.7132 16.136C74.9372 16.5627 75.2465 16.8987 75.6412 17.144C76.0465 17.3893 76.5052 17.512 77.0172 17.512ZM88.5039 19.192C87.8319 19.192 87.2186 19.0533 86.6639 18.776C86.1199 18.4987 85.6986 18.0987 85.3999 17.576L85.6079 17.24V19H83.8799V6.888H85.6879V12.136L85.3999 11.72C85.7199 11.2293 86.1466 10.8453 86.6799 10.568C87.2133 10.2907 87.8213 10.152 88.5039 10.152C89.3253 10.152 90.0613 10.3493 90.7119 10.744C91.3733 11.1387 91.8906 11.6773 92.2639 12.36C92.6479 13.0427 92.8399 13.8107 92.8399 14.664C92.8399 15.5173 92.6479 16.2853 92.2639 16.968C91.8906 17.6507 91.3786 18.1947 90.7279 18.6C90.0773 18.9947 89.3359 19.192 88.5039 19.192ZM88.3279 17.512C88.8399 17.512 89.2933 17.3893 89.6879 17.144C90.0826 16.8987 90.3919 16.5627 90.6159 16.136C90.8506 15.6987 90.9679 15.208 90.9679 14.664C90.9679 14.12 90.8506 13.6347 90.6159 13.208C90.3919 12.7813 90.0826 12.4453 89.6879 12.2C89.2933 11.9547 88.8399 11.832 88.3279 11.832C87.8266 11.832 87.3733 11.9547 86.9679 12.2C86.5733 12.4453 86.2586 12.7813 86.0239 13.208C85.7999 13.6347 85.6879 14.12 85.6879 14.664C85.6879 15.208 85.7999 15.6987 86.0239 16.136C86.2586 16.5627 86.5733 16.8987 86.9679 17.144C87.3733 17.3893 87.8266 17.512 88.3279 17.512ZM97.5107 19.192C96.924 19.192 96.4067 19.0907 95.9587 18.888C95.5214 18.6747 95.18 18.3867 94.9347 18.024C94.6894 17.6507 94.5667 17.2133 94.5667 16.712C94.5667 16.2427 94.668 15.8213 94.8707 15.448C95.084 15.0747 95.4094 14.76 95.8467 14.504C96.284 14.248 96.8334 14.0667 97.4947 13.96L100.503 13.464V14.888L97.8467 15.352C97.3667 15.4373 97.0147 15.592 96.7907 15.816C96.5667 16.0293 96.4547 16.3067 96.4547 16.648C96.4547 16.9787 96.5774 17.2507 96.8227 17.464C97.0787 17.6667 97.404 17.768 97.7987 17.768C98.2894 17.768 98.716 17.6613 99.0787 17.448C99.452 17.2347 99.74 16.952 99.9427 16.6C100.145 16.2373 100.247 15.8373 100.247 15.4V13.176C100.247 12.7493 100.087 12.4027 99.7667 12.136C99.4574 11.8587 99.0414 11.72 98.5187 11.72C98.0387 11.72 97.6174 11.848 97.2547 12.104C96.9027 12.3493 96.6414 12.6693 96.4707 13.064L94.9667 12.312C95.1267 11.8853 95.388 11.512 95.7507 11.192C96.1134 10.8613 96.5347 10.6053 97.0147 10.424C97.5054 10.2427 98.0227 10.152 98.5667 10.152C99.2494 10.152 99.852 10.28 100.375 10.536C100.908 10.792 101.319 11.1493 101.607 11.608C101.905 12.056 102.055 12.5787 102.055 13.176V19H100.327V17.432L100.695 17.48C100.492 17.832 100.231 18.136 99.9107 18.392C99.6014 18.648 99.244 18.8453 98.8387 18.984C98.444 19.1227 98.0014 19.192 97.5107 19.192ZM108.601 19.192C107.737 19.192 106.969 18.9947 106.297 18.6C105.635 18.1947 105.107 17.6507 104.713 16.968C104.329 16.2853 104.137 15.512 104.137 14.648C104.137 13.7947 104.329 13.0267 104.713 12.344C105.097 11.6613 105.625 11.128 106.297 10.744C106.969 10.3493 107.737 10.152 108.601 10.152C109.187 10.152 109.737 10.2587 110.249 10.472C110.761 10.6747 111.203 10.9573 111.577 11.32C111.961 11.6827 112.243 12.104 112.425 12.584L110.841 13.32C110.659 12.872 110.366 12.5147 109.961 12.248C109.566 11.9707 109.113 11.832 108.601 11.832C108.11 11.832 107.667 11.9547 107.273 12.2C106.889 12.4347 106.585 12.7707 106.361 13.208C106.137 13.6347 106.025 14.12 106.025 14.664C106.025 15.208 106.137 15.6987 106.361 16.136C106.585 16.5627 106.889 16.8987 107.273 17.144C107.667 17.3893 108.11 17.512 108.601 17.512C109.123 17.512 109.577 17.3787 109.961 17.112C110.355 16.8347 110.649 16.4667 110.841 16.008L112.425 16.76C112.254 17.2187 111.977 17.6347 111.593 18.008C111.219 18.3707 110.777 18.6587 110.265 18.872C109.753 19.0853 109.198 19.192 108.601 19.192ZM114.512 19V6.888H116.32V15L115.616 14.824L119.952 10.344H122.208L118.944 13.816L122.352 19H120.272L117.232 14.408L118.304 14.264L115.744 16.984L116.32 15.784V19H114.512ZM43.3228 37V25.08H47.6588C48.4588 25.08 49.1628 25.2293 49.7708 25.528C50.3895 25.816 50.8695 26.2427 51.2108 26.808C51.5522 27.3627 51.7228 28.0293 51.7228 28.808C51.7228 29.576 51.5468 30.2373 51.1948 30.792C50.8535 31.3467 50.3788 31.7733 49.7708 32.072C49.1628 32.3707 48.4588 32.52 47.6588 32.52H45.2108V37H43.3228ZM45.2108 30.84H47.7068C48.1335 30.84 48.5068 30.7547 48.8268 30.584C49.1468 30.4133 49.3975 30.1787 49.5788 29.88C49.7602 29.5707 49.8508 29.208 49.8508 28.792C49.8508 28.376 49.7602 28.0187 49.5788 27.72C49.3975 27.4107 49.1468 27.176 48.8268 27.016C48.5068 26.8453 48.1335 26.76 47.7068 26.76H45.2108V30.84ZM56.8986 37.192C56.2479 37.192 55.6772 37.048 55.1866 36.76C54.6959 36.4613 54.3119 36.0507 54.0346 35.528C53.7679 34.9947 53.6346 34.3813 53.6346 33.688V28.344H55.4426V33.528C55.4426 33.9227 55.5226 34.2693 55.6826 34.568C55.8426 34.8667 56.0666 35.1013 56.3546 35.272C56.6426 35.432 56.9732 35.512 57.3466 35.512C57.7306 35.512 58.0666 35.4267 58.3546 35.256C58.6426 35.0853 58.8666 34.8453 59.0266 34.536C59.1972 34.2267 59.2826 33.864 59.2826 33.448V28.344H61.0746V37H59.3626V35.304L59.5546 35.528C59.3519 36.0613 59.0159 36.472 58.5466 36.76C58.0772 37.048 57.5279 37.192 56.8986 37.192ZM63.5056 37V24.888H65.3136V37H63.5056ZM70.9474 37.192C70.0621 37.192 69.2834 36.9733 68.6114 36.536C67.9501 36.0987 67.4861 35.512 67.2194 34.776L68.6114 34.12C68.8461 34.6107 69.1661 35 69.5714 35.288C69.9874 35.576 70.4461 35.72 70.9474 35.72C71.3741 35.72 71.7208 35.624 71.9874 35.432C72.2541 35.24 72.3874 34.9787 72.3874 34.648C72.3874 34.4347 72.3288 34.264 72.2114 34.136C72.0941 33.9973 71.9448 33.8853 71.7634 33.8C71.5928 33.7147 71.4168 33.6507 71.2354 33.608L69.8754 33.224C69.1288 33.0107 68.5688 32.6907 68.1954 32.264C67.8328 31.8267 67.6514 31.32 67.6514 30.744C67.6514 30.2213 67.7848 29.768 68.0514 29.384C68.3181 28.9893 68.6861 28.6853 69.1554 28.472C69.6248 28.2587 70.1528 28.152 70.7394 28.152C71.5288 28.152 72.2328 28.3493 72.8514 28.744C73.4701 29.128 73.9074 29.6667 74.1634 30.36L72.7714 31.016C72.6008 30.6 72.3288 30.2693 71.9554 30.024C71.5928 29.7787 71.1821 29.656 70.7234 29.656C70.3288 29.656 70.0141 29.752 69.7794 29.944C69.5448 30.1253 69.4274 30.3653 69.4274 30.664C69.4274 30.8667 69.4808 31.0373 69.5874 31.176C69.6941 31.304 69.8328 31.4107 70.0034 31.496C70.1741 31.5707 70.3501 31.6347 70.5314 31.688L71.9394 32.104C72.6541 32.3067 73.2034 32.6267 73.5874 33.064C73.9714 33.4907 74.1634 34.0027 74.1634 34.6C74.1634 35.112 74.0248 35.5653 73.7474 35.96C73.4808 36.344 73.1074 36.648 72.6274 36.872C72.1474 37.0853 71.5874 37.192 70.9474 37.192ZM80.3189 37.192C79.4549 37.192 78.6869 36.9947 78.0149 36.6C77.3536 36.1947 76.8363 35.6507 76.4629 34.968C76.0896 34.2747 75.9029 33.5013 75.9029 32.648C75.9029 31.7733 76.0896 31 76.4629 30.328C76.8469 29.656 77.3589 29.128 77.9989 28.744C78.6389 28.3493 79.3643 28.152 80.1749 28.152C80.8256 28.152 81.4069 28.264 81.9189 28.488C82.4309 28.712 82.8629 29.0213 83.2149 29.416C83.5669 29.8 83.8336 30.2427 84.0149 30.744C84.2069 31.2453 84.3029 31.7787 84.3029 32.344C84.3029 32.4827 84.2976 32.6267 84.2869 32.776C84.2763 32.9253 84.2549 33.064 84.2229 33.192H77.3269V31.752H83.1989L82.3349 32.408C82.4416 31.8853 82.4043 31.4213 82.2229 31.016C82.0523 30.6 81.7856 30.2747 81.4229 30.04C81.0709 29.7947 80.6549 29.672 80.1749 29.672C79.6949 29.672 79.2683 29.7947 78.8949 30.04C78.5216 30.2747 78.2336 30.616 78.0309 31.064C77.8283 31.5013 77.7483 32.0347 77.7909 32.664C77.7376 33.2507 77.8176 33.7627 78.0309 34.2C78.2549 34.6373 78.5643 34.9787 78.9589 35.224C79.3643 35.4693 79.8229 35.592 80.3349 35.592C80.8576 35.592 81.3003 35.4747 81.6629 35.24C82.0363 35.0053 82.3296 34.7013 82.5429 34.328L84.0149 35.048C83.8443 35.4533 83.5776 35.8213 83.2149 36.152C82.8629 36.472 82.4363 36.728 81.9349 36.92C81.4443 37.1013 80.9056 37.192 80.3189 37.192Z" fill="currentColor"/>
</svg>
